name Walk2.mot
datacolumns 19
datarows 15
range 2.05800000 2.07200000
endheader

                time	   L_ground_force_vx	   L_ground_force_vy	   L_ground_force_vz	   L_ground_force_px	   L_ground_force_py	   L_ground_force_pz	   R_ground_force_vx	   R_ground_force_vy	   R_ground_force_vz	   R_ground_force_px	   R_ground_force_py	   R_ground_force_pz	   L_ground_torque_x	   L_ground_torque_y	   L_ground_torque_z	   R_ground_torque_x	   R_ground_torque_y	   R_ground_torque_z	
          2.05800000	          0.00125876	          0.00702547	         -0.00150924	         -0.00015845	          0.00000000	         -0.00004786	        -25.01300511	        541.85395737	        -39.07151365	          0.17632138	          0.00000000	          0.09725455	          0.00000000	          0.00012222	          0.00000000	          0.00000000	          1.54125690	          0.00000000	
          2.05900000	          0.00063713	          0.00492181	         -0.00144195	         -0.00014826	          0.00000000	         -0.00004498	        -24.67739296	        540.70078385	        -39.00496989	          0.17672271	          0.00000000	          0.09732697	          0.00000000	          0.00011640	          0.00000000	          0.00000000	          1.53198659	          0.00000000	
          2.06000000	          0.00006595	          0.00297842	         -0.00137493	         -0.00013837	          0.00000000	         -0.00004218	        -24.34670127	        539.57159456	        -38.93757057	          0.17712312	          0.00000000	          0.09739716	          0.00000000	          0.00011064	          0.00000000	          0.00000000	          1.52298716	          0.00000000	
          2.06100000	         -0.00045693	          0.00118900	         -0.00130841	         -0.00012881	          0.00000000	         -0.00003945	        -24.02074729	        538.46616689	        -38.86926335	          0.17752258	          0.00000000	          0.09746508	          0.00000000	          0.00010494	          0.00000000	          0.00000000	          1.51427542	          0.00000000	
          2.06200000	         -0.00093361	         -0.00045276	         -0.00124261	         -0.00011956	          0.00000000	         -0.00003680	        -23.69934652	        537.38426189	        -38.80000504	          0.17792103	          0.00000000	          0.09753072	          0.00000000	          0.00009934	          0.00000000	          0.00000000	          1.50586745	          0.00000000	
          2.06300000	         -0.00136624	         -0.00195322	         -0.00117770	         -0.00011065	          0.00000000	         -0.00003424	        -23.38231349	        536.32562590	        -38.72976130	          0.17831843	          0.00000000	          0.09759405	          0.00000000	          0.00009383	          0.00000000	          0.00000000	          1.49777829	          0.00000000	
          2.06400000	         -0.00175693	         -0.00331873	         -0.00111387	         -0.00010209	          0.00000000	         -0.00003177	        -23.06946271	        535.28999312	        -38.65850676	          0.17871475	          0.00000000	          0.09765506	          0.00000000	          0.00008844	          0.00000000	          0.00000000	          1.49002160	          0.00000000	
          2.06500000	         -0.00210775	         -0.00455560	         -0.00105125	         -0.00009386	          0.00000000	         -0.00002939	        -22.76060971	        534.27708845	        -38.58622558	          0.17910992	          0.00000000	          0.09771373	          0.00000000	          0.00008318	          0.00000000	          0.00000000	          1.48260935	          0.00000000	
          2.06600000	         -0.00242078	         -0.00567008	         -0.00098998	         -0.00008598	          0.00000000	         -0.00002710	        -22.45557215	        533.28663049	        -38.51291216	          0.17950389	          0.00000000	          0.09777005	          0.00000000	          0.00007804	          0.00000000	          0.00000000	          1.47555164	          0.00000000	
          2.06700000	         -0.00269805	         -0.00666839	         -0.00093019	         -0.00007844	          0.00000000	         -0.00002491	        -22.15417106	        532.31833402	        -38.43857181	          0.17989661	          0.00000000	          0.09782400	          0.00000000	          0.00007305	          0.00000000	          0.00000000	          1.46885658	          0.00000000	
          2.06800000	         -0.00294155	         -0.00755661	         -0.00087196	         -0.00007125	          0.00000000	         -0.00002280	        -21.85623194	        531.37191190	        -38.36322114	          0.18028804	          0.00000000	          0.09787558	          0.00000000	          0.00006821	          0.00000000	          0.00000000	          1.46253034	          0.00000000	
          2.06900000	         -0.00315324	         -0.00834076	         -0.00081539	         -0.00006440	          0.00000000	         -0.00002079	        -21.56158558	        530.44707629	        -38.28688805	          0.18067810	          0.00000000	          0.09792476	          0.00000000	          0.00006352	          0.00000000	          0.00000000	          1.45657714	          0.00000000	
          2.07000000	         -0.00333500	         -0.00902672	         -0.00076054	         -0.00005789	          0.00000000	         -0.00001887	        -21.27006835	        529.54353933	        -38.20961130	          0.18106677	          0.00000000	          0.09797154	          0.00000000	          0.00005899	          0.00000000	          0.00000000	          1.45099939	          0.00000000	
          2.07100000	         -0.00348871	         -0.00962025	         -0.00070749	         -0.00005171	          0.00000000	         -0.00001704	        -20.98152199	        528.66101375	        -38.13143972	          0.18145397	          0.00000000	          0.09801590	          0.00000000	          0.00005462	          0.00000000	          0.00000000	          1.44579777	          0.00000000	
          2.07200000	         -0.00361617	         -0.01012696	         -0.00065627	         -0.00004587	          0.00000000	         -0.00001531	        -20.69579291	        527.79921333	        -38.05243149	          0.18183967	          0.00000000	          0.09805783	          0.00000000	          0.00005042	          0.00000000	          0.00000000	          1.44097141	          0.00000000	
